# xmcd
#
# Track frame offsets: 
#        150
#        18534
#        33595
#        49899
#        68037
#        92831
#        107451
#        121527
#        139717
#        156033
#
# Disc length: 2282 seconds
#
# Revision: 0
# Processed by: cddbd v1.5.2PL0 Copyright (c) Steve Scherf et al.
# Submitted via: ExactAudioCopy v0.95b4
#
DISCID=7a08e80a
DTITLE=Erik Buell and The Thunderbolts - Anthem
DYEAR=2010
DGENRE=Blues
TTITLE0=Anthem X
TTITLE1=Wrong Way Home
TTITLE2=Get Up And Dance
TTITLE3=West
TTITLE4=Runnin' Blind
TTITLE5=One More Night
TTITLE6=Movin' Along
TTITLE7=Landslide
TTITLE8=Taken Down Blues
TTITLE9=Firestorm
EXTD=
EXTT0=
EXTT1=
EXTT2=
EXTT3=
EXTT4=
EXTT5=
EXTT6=
EXTT7=
EXTT8=
EXTT9=
PLAYORDER=
